<svg id="Capa_1" enable-background="new 0 0 512 512" height="512" viewBox="0 0 512 512" width="512" xmlns="http://www.w3.org/2000/svg"><g><g><g><g><g><g><g><g><g><g><g><g><g><g><circle cx="256" cy="256" fill="#00cb76" r="256"/></g></g></g></g></g></g></g></g></g></g></g></g></g><path d="m247.387 100.007-15.588 15.588v148.874l-97.19 97.19 148.87 148.87c104.614-11.166 190.388-85.337 218.63-183.838l-222.357-222.356z" fill="#00a963"/><g><g><g><g><path d="m237.279 155.387h-15v-27.138c0-18.594 15.128-33.722 33.723-33.722l4.818 7.789-4.818 7.211c-10.323 0-18.723 8.399-18.723 18.722z" fill="#ffd944"/></g></g><g><path d="m289.725 155.387h-15v-27.138c0-10.323-8.399-18.722-18.723-18.722v-15c18.595 0 33.723 15.128 33.723 33.722z" fill="#fc0"/></g></g><g><g><g><path d="m256.002 314.802h-45.839v36.888c0 25.275 20.563 45.838 45.839 45.838l22.919-47.58z" fill="#ffd944"/></g></g><g><path d="m301.841 314.802h-45.839v82.726c25.276 0 45.839-20.563 45.839-45.838z" fill="#fc0"/></g></g><g><path d="m256.002 136.206 29.284 102.035-29.284 123.419h-121.393v-30.964l34.487-34.487v-73.005c0-47.987 38.851-86.897 86.814-86.997h.092z" fill="#fc0"/><path d="m256.002 136.206v225.454h121.393v-30.964l-34.487-34.487v-73.005c0-47.987-38.851-86.897-86.814-86.997h-.092z" fill="#ff9e22"/></g></g></g></svg>